<?xml version="1.0" encoding="UTF-8" ?>
<!DOCTYPE svg PUBLIC "-//W3C//DTD SVG 1.1//EN" "http://www.w3.org/Graphics/SVG/1.1/DTD/svg11.dtd">
<svg width="1071pt" height="933pt" viewBox="0 0 1071 933" version="1.1" xmlns="http://www.w3.org/2000/svg">
<path fill="#a39d9d" d=" M 0.00 0.00 L 1.46 0.00 C 0.71 6.64 1.06 13.34 1.02 20.00 C 1.02 311.34 1.02 602.67 1.02 894.00 C 0.73 904.10 1.70 914.27 0.36 924.31 L 0.00 923.08 L 0.00 0.00 Z" />
<path fill="#1f1a17" d=" M 1.46 0.00 L 7.08 0.00 C 9.68 0.53 12.31 0.98 14.97 1.02 C 304.64 1.02 594.32 0.99 884.00 1.02 C 946.33 1.07 1008.67 0.91 1071.00 1.10 L 1071.00 7.10 C 1069.42 12.94 1070.06 19.03 1069.98 25.00 C 1070.00 321.67 1069.97 618.34 1070.00 915.00 C 1069.85 920.70 1070.55 926.50 1069.32 932.12 C 972.21 931.81 875.10 932.06 778.00 931.99 C 518.98 931.96 259.96 932.01 0.94 931.97 C 0.78 929.41 0.61 926.85 0.36 924.31 C 1.70 914.27 0.73 904.10 1.02 894.00 C 1.02 602.67 1.02 311.34 1.02 20.00 C 1.06 13.34 0.71 6.64 1.46 0.00 Z" />
<path fill="#928d8d" d=" M 7.08 0.00 L 1071.00 0.00 L 1071.00 1.10 C 1008.67 0.91 946.33 1.07 884.00 1.02 C 594.32 0.99 304.64 1.02 14.97 1.02 C 12.31 0.98 9.68 0.53 7.08 0.00 Z" />
<path fill="#da251c" d=" M 804.87 8.56 C 890.54 8.33 976.23 8.52 1061.91 8.47 C 1062.64 13.95 1062.37 19.49 1062.38 25.00 C 1062.38 315.67 1062.38 606.34 1062.38 897.00 C 1062.27 906.07 1062.66 915.16 1062.13 924.22 C 1037.43 924.81 1012.71 924.31 988.00 924.48 C 932.33 924.48 876.67 924.47 821.00 924.48 C 815.52 924.46 810.04 924.60 804.58 924.18 C 807.69 919.18 812.14 915.27 815.87 910.78 C 820.54 905.16 825.81 900.08 830.31 894.31 C 835.49 887.55 841.66 881.58 846.46 874.51 C 857.94 858.26 870.36 842.62 880.63 825.55 C 887.05 817.05 891.70 807.42 897.37 798.44 C 903.00 789.43 907.57 779.81 912.53 770.42 C 920.42 755.63 927.19 740.29 934.00 724.99 C 937.65 715.77 942.04 706.85 945.20 697.44 C 948.82 686.59 953.19 675.99 955.99 664.87 C 963.01 643.62 968.39 621.86 973.01 599.98 C 978.87 570.68 983.55 541.05 984.78 511.17 C 986.35 497.18 985.55 483.06 985.79 469.00 C 985.58 451.35 986.37 433.63 984.56 416.04 C 983.72 400.60 981.64 385.26 979.80 369.92 C 976.96 353.17 974.19 336.40 970.31 319.85 C 966.87 304.24 962.53 288.85 958.17 273.48 C 955.23 264.65 952.92 255.62 949.35 247.01 C 943.95 230.60 937.32 214.64 930.31 198.86 C 923.21 182.92 915.94 167.03 907.41 151.79 C 903.05 142.47 897.08 134.06 892.09 125.10 C 887.42 116.52 882.05 108.34 876.77 100.13 C 871.26 92.92 866.95 84.90 861.40 77.73 C 856.54 71.51 852.47 64.70 847.13 58.87 C 834.68 43.69 822.64 28.13 809.21 13.78 C 807.69 12.10 806.27 10.34 804.87 8.56 Z" />
<path fill="#ada9a6" d=" M 1069.98 25.00 C 1070.06 19.03 1069.42 12.94 1071.00 7.10 L 1071.00 933.00 L 1069.01 933.00 L 1069.32 932.12 C 1070.55 926.50 1069.85 920.70 1070.00 915.00 C 1069.97 618.34 1070.00 321.67 1069.98 25.00 Z" />
<path fill="#ffffff" d=" M 8.59 8.58 C 111.54 8.51 214.49 8.54 317.43 8.56 C 317.54 34.77 317.27 60.98 317.38 87.19 L 318.13 87.20 C 380.75 87.88 443.15 104.56 497.66 135.40 C 565.55 173.43 621.36 232.82 654.86 303.07 C 688.46 372.10 699.31 451.68 686.73 527.31 C 675.45 595.51 644.64 660.20 599.42 712.40 C 593.48 718.81 588.03 725.68 581.59 731.60 C 528.01 786.44 457.25 824.34 381.78 838.07 C 360.87 842.02 339.59 843.95 318.32 844.19 C 318.43 870.97 318.36 897.75 318.57 924.53 C 218.71 924.58 118.86 924.54 19.01 924.55 C 15.76 924.50 12.50 924.68 9.26 924.46 C 9.09 924.10 8.76 923.36 8.59 923.00 C 8.59 618.19 8.58 313.39 8.59 8.58 Z" />
<path fill="#da251c" d=" M 58.59 27.00 C 63.15 26.32 67.80 26.79 72.39 26.74 C 80.42 36.30 89.15 45.23 97.44 54.55 C 171.16 135.49 245.14 216.21 318.72 297.27 C 365.31 296.89 411.84 310.06 451.55 334.37 C 477.09 349.94 499.78 370.11 518.60 393.34 C 542.30 422.95 559.50 457.83 567.99 494.83 C 576.87 532.78 576.78 572.77 567.78 610.70 C 559.57 645.57 543.69 678.54 522.01 707.03 C 505.81 727.68 487.01 746.42 465.45 761.46 C 431.79 785.45 392.08 800.90 351.06 806.01 C 340.61 807.35 330.10 807.96 319.57 807.64 C 319.47 758.41 319.32 709.18 319.28 659.95 C 318.29 640.46 319.18 620.91 318.55 601.40 C 348.15 601.02 377.99 591.72 401.44 573.41 C 409.03 567.06 416.96 561.00 423.23 553.28 C 432.41 541.98 440.37 529.59 446.05 516.16 C 453.21 498.37 456.77 479.13 456.37 459.95 C 455.20 440.82 451.48 421.51 442.65 404.34 C 429.28 375.78 405.13 352.93 376.90 339.25 C 358.72 331.03 338.89 326.16 318.86 326.49 C 318.71 321.74 319.17 316.90 318.35 312.22 C 313.92 310.22 306.97 314.20 303.67 309.23 C 285.29 289.01 266.91 268.80 248.47 248.63 C 208.48 204.60 168.41 160.65 128.34 116.70 C 106.23 92.47 84.24 68.13 62.04 43.97 C 60.85 42.69 59.64 41.40 58.70 39.92 C 58.27 35.63 58.41 31.30 58.59 27.00 Z" />
<path fill="#d9251c" d=" M 183.10 26.70 C 187.95 28.06 191.63 31.57 194.53 35.53 C 195.65 35.57 196.77 35.60 197.90 35.64 C 198.55 33.72 199.07 31.77 199.58 29.81 C 200.83 30.84 202.10 31.81 203.42 32.75 C 203.66 37.58 203.27 42.43 203.65 47.25 C 204.43 44.84 204.18 42.26 204.59 39.78 C 207.48 43.27 211.11 47.78 208.78 52.54 C 208.26 56.22 204.53 57.78 201.36 58.64 C 198.38 59.49 195.25 59.34 192.19 59.41 C 192.84 66.18 193.35 72.99 194.91 79.63 C 202.55 78.43 210.20 75.55 218.02 76.96 C 223.23 77.72 227.69 81.22 233.03 81.44 C 235.40 81.59 237.62 80.61 239.87 80.00 C 237.98 76.35 233.95 76.08 230.33 75.73 C 229.73 72.65 229.36 69.53 229.02 66.42 C 231.14 66.04 233.26 65.63 235.37 65.17 C 229.34 60.93 223.92 54.86 216.06 54.45 C 216.24 52.05 216.47 49.65 216.74 47.26 C 220.03 47.06 223.42 47.74 225.54 50.48 C 228.26 53.89 231.85 56.32 235.96 57.75 C 235.48 55.50 234.57 53.31 234.50 50.99 C 237.27 48.32 241.02 46.56 242.41 42.71 C 245.90 43.78 249.55 43.63 252.99 42.45 C 260.16 41.23 265.69 47.42 268.88 53.04 C 270.72 57.62 276.40 59.04 278.11 63.72 C 278.75 65.61 280.29 67.77 278.89 69.68 C 277.79 72.36 274.73 73.10 272.42 74.38 C 272.05 82.15 270.38 89.77 268.35 97.25 C 266.96 96.06 265.62 94.83 264.31 93.56 C 262.90 97.45 261.77 101.73 258.64 104.65 C 257.24 106.03 255.75 107.32 254.27 108.61 C 254.03 107.71 253.56 105.90 253.33 105.00 C 252.22 107.03 251.04 109.01 249.88 111.00 C 253.99 114.93 258.59 118.33 262.55 122.44 C 267.31 127.35 272.67 131.73 276.68 137.32 C 280.92 142.77 284.76 148.52 289.05 153.92 C 290.99 156.03 293.96 154.93 296.34 154.40 C 296.23 150.50 296.75 146.55 296.06 142.69 C 294.70 138.42 293.23 134.06 290.54 130.41 C 284.95 122.50 280.62 113.70 277.49 104.54 C 276.15 99.13 276.04 93.29 277.58 87.90 C 278.92 82.89 280.03 77.58 283.30 73.39 C 287.97 67.09 287.16 58.42 284.14 51.59 C 287.41 52.89 290.65 54.41 293.43 56.60 C 296.35 58.99 297.10 62.85 297.90 66.32 C 298.95 71.22 301.12 75.92 301.35 80.97 C 299.08 87.85 291.65 90.49 285.41 92.59 C 283.57 98.26 285.76 104.05 287.73 109.37 C 291.88 119.42 297.77 128.61 302.79 138.23 C 305.17 142.78 304.72 148.06 304.67 153.02 C 305.03 159.74 298.99 166.27 292.07 165.46 C 293.17 171.30 291.89 177.39 293.68 183.12 C 295.79 181.74 297.06 178.88 299.62 178.33 C 301.35 180.49 302.73 183.07 302.36 185.93 C 301.99 195.80 303.17 205.77 301.35 215.53 C 300.96 218.40 302.09 221.31 301.36 224.14 C 299.76 228.45 295.67 231.54 295.32 236.34 C 293.45 236.82 291.57 237.27 289.68 237.71 C 289.43 240.13 289.00 242.53 288.38 244.88 C 286.00 242.43 284.03 239.60 283.04 236.31 C 277.66 237.05 272.95 234.09 267.87 232.97 C 266.84 230.98 266.23 228.80 265.15 226.84 C 263.56 224.51 260.02 224.54 258.62 222.03 C 259.93 216.10 266.17 213.87 271.55 213.45 C 270.71 212.28 269.86 211.13 269.01 209.98 C 270.80 208.49 272.31 205.90 275.00 206.33 C 277.94 206.16 280.04 208.59 282.43 209.90 C 285.42 202.01 279.58 194.65 275.62 188.29 C 275.08 189.16 274.55 190.02 274.02 190.89 C 273.49 190.74 272.42 190.42 271.89 190.27 C 268.30 183.00 266.04 175.22 264.35 167.31 C 261.37 167.21 258.17 167.19 256.00 169.60 C 257.08 172.30 258.35 174.93 259.26 177.69 C 259.57 179.20 259.82 180.72 260.08 182.24 C 252.67 183.15 245.20 183.15 237.75 183.24 C 234.92 183.01 232.55 181.30 230.24 179.81 C 222.72 174.89 215.26 169.48 209.99 162.07 C 208.25 159.53 204.51 160.53 202.39 158.55 C 201.03 157.27 200.10 155.58 198.63 154.43 C 196.50 153.43 194.14 153.08 191.98 152.16 C 191.46 150.67 191.21 149.10 190.86 147.58 C 192.79 147.48 194.72 147.40 196.65 147.34 C 196.90 146.79 197.38 145.70 197.62 145.15 C 195.89 144.15 194.18 143.13 192.49 142.08 C 192.84 141.63 193.52 140.71 193.86 140.25 C 195.94 137.35 200.04 139.91 202.96 139.48 C 202.17 137.38 201.14 135.40 200.11 133.42 C 207.64 133.08 214.70 136.52 219.87 141.83 C 219.67 140.43 219.46 139.03 219.26 137.63 C 222.22 139.14 225.55 140.54 227.34 143.52 C 229.41 146.51 229.06 150.90 226.40 153.42 C 225.05 154.00 223.62 154.36 222.22 154.78 C 224.51 162.18 232.21 165.92 239.58 165.63 C 239.51 162.91 240.65 159.42 238.00 157.53 C 235.47 157.42 233.00 158.04 230.51 158.39 C 232.03 155.14 233.11 151.36 236.00 149.02 C 240.36 145.99 245.09 143.20 250.45 142.46 C 247.68 139.52 244.31 136.94 240.30 136.04 C 231.14 133.76 221.55 133.91 212.46 131.32 C 208.76 130.18 206.07 127.29 203.77 124.34 C 201.05 125.55 198.14 127.19 195.07 126.32 C 190.68 124.65 186.73 121.74 181.95 121.23 C 179.29 121.09 177.37 119.21 175.61 117.44 C 168.00 109.70 159.68 102.56 153.02 93.96 C 151.60 92.67 149.81 91.91 148.25 90.83 C 144.64 88.45 142.43 84.40 138.49 82.49 C 135.87 81.21 133.69 79.24 132.18 76.76 C 129.55 77.83 126.90 78.87 124.24 79.87 C 125.25 76.78 126.45 73.76 127.93 70.87 C 126.34 67.91 126.03 64.64 127.54 61.58 C 126.17 60.11 124.95 58.51 123.84 56.84 C 127.74 56.07 131.69 55.65 135.67 55.68 C 136.36 54.73 137.06 53.79 137.77 52.86 C 136.35 50.32 135.11 47.60 135.60 44.61 C 142.01 48.33 147.58 53.96 155.07 55.46 C 157.56 56.01 159.88 54.91 162.11 53.96 C 165.30 56.83 165.42 61.90 163.33 65.45 C 161.14 68.84 157.06 70.00 153.42 71.11 C 153.40 71.80 153.36 73.19 153.33 73.88 C 159.13 78.67 165.86 82.39 173.01 84.72 C 176.49 78.79 173.34 71.92 175.45 65.69 C 175.57 62.40 172.55 59.39 173.91 55.98 C 174.27 52.96 176.65 49.96 175.15 46.94 C 173.69 43.85 175.39 40.58 175.70 37.43 C 179.11 37.27 182.53 37.54 185.94 37.26 C 189.27 33.86 185.08 29.65 183.10 26.70 Z" />
<path fill="#1d3482" d=" M 317.87 48.73 C 335.59 47.87 353.26 49.69 370.91 50.95 C 386.97 53.22 403.11 55.19 418.95 58.77 C 463.55 67.54 506.72 83.05 547.19 103.68 C 569.98 115.64 592.30 128.64 613.08 143.88 C 623.22 151.76 633.78 159.10 643.41 167.61 C 649.53 173.19 656.62 177.64 662.31 183.69 C 667.52 189.16 673.46 193.86 678.74 199.25 C 691.53 211.91 702.59 226.12 714.08 239.93 C 719.18 246.54 724.69 252.85 729.19 259.91 C 734.10 266.42 738.73 273.13 743.03 280.06 C 749.13 288.24 753.64 297.41 758.96 306.09 C 763.59 314.54 768.56 322.81 772.63 331.55 C 777.50 340.90 782.32 350.31 785.90 360.25 C 797.49 388.30 806.80 417.31 813.38 446.94 C 819.28 474.23 823.72 501.94 824.52 529.89 C 825.68 541.90 825.30 553.96 825.42 566.00 C 825.53 572.69 824.27 579.30 824.32 586.00 C 822.88 616.78 817.42 647.24 810.33 677.18 C 798.82 722.44 781.31 766.25 757.77 806.62 C 754.58 811.42 752.38 816.75 749.73 821.85 C 743.73 831.98 737.18 841.79 730.13 851.23 C 726.78 855.80 723.76 860.68 719.57 864.56 C 714.49 869.26 711.02 875.32 706.39 880.41 C 701.68 885.72 696.87 890.95 692.60 896.63 C 687.64 902.63 681.79 907.81 676.52 913.52 C 672.76 917.02 669.65 921.28 665.40 924.21 C 662.01 925.03 658.46 924.56 655.00 924.63 C 542.86 924.52 430.71 924.73 318.57 924.53 C 318.36 897.75 318.43 870.97 318.32 844.19 C 339.59 843.95 360.87 842.02 381.78 838.07 C 457.25 824.34 528.01 786.44 581.59 731.60 C 588.03 725.68 593.48 718.81 599.42 712.40 C 644.64 660.20 675.45 595.51 686.73 527.31 C 699.31 451.68 688.46 372.10 654.86 303.07 C 621.36 232.82 565.55 173.43 497.66 135.40 C 443.15 104.56 380.75 87.88 318.13 87.20 C 317.55 82.82 317.49 78.40 317.58 74.00 C 317.75 65.58 317.32 57.15 317.87 48.73 Z" />
<path fill="#ffedde" d=" M 252.99 50.79 C 254.47 50.74 255.95 50.78 257.43 50.93 C 257.49 52.19 257.56 53.45 257.63 54.72 C 256.86 54.98 255.31 55.51 254.53 55.78 C 253.95 54.14 253.43 52.47 252.99 50.79 Z" />
<path fill="#fdfcfa" d=" M 128.34 116.70 C 168.41 160.65 208.48 204.60 248.47 248.63 C 241.56 245.90 237.41 239.37 232.67 234.03 C 231.33 235.34 230.00 236.66 228.69 238.00 C 233.59 241.57 238.82 244.73 243.09 249.10 C 243.00 250.42 242.93 251.75 242.85 253.08 C 238.70 244.70 229.15 242.15 222.34 236.61 C 217.82 233.03 212.37 230.83 208.02 227.04 C 206.13 225.63 206.31 223.11 205.93 221.04 C 205.26 213.42 202.95 205.19 196.96 200.05 C 190.51 196.94 182.55 195.04 175.95 198.87 C 178.01 200.48 180.59 201.76 181.73 204.25 C 184.34 209.76 185.22 216.08 189.01 221.01 C 191.98 225.21 196.85 227.28 201.15 229.79 C 210.86 234.84 219.75 241.23 228.96 247.10 C 232.44 249.24 234.73 252.71 236.21 256.44 C 226.96 259.28 217.69 254.53 209.71 250.24 C 199.95 242.87 190.03 235.62 179.40 229.53 C 172.96 226.91 167.15 223.13 161.42 219.25 C 161.29 213.14 162.78 207.14 164.89 201.44 C 166.03 204.22 167.07 207.04 168.22 209.82 C 171.67 203.36 173.31 196.11 172.65 188.79 C 175.13 187.43 177.59 186.04 180.00 184.56 C 179.69 179.76 177.17 175.53 173.78 172.24 C 168.86 167.68 166.40 160.85 160.52 157.27 C 158.67 155.86 156.21 156.33 154.05 156.30 C 150.04 156.58 146.03 156.65 142.02 156.56 C 140.49 160.04 138.06 162.96 135.23 165.46 C 135.33 167.57 135.48 169.68 135.62 171.80 C 130.34 169.12 126.50 164.57 122.87 160.05 C 121.29 160.18 119.72 160.33 118.15 160.49 C 118.44 163.37 118.67 166.81 121.47 168.45 C 126.44 171.64 131.51 174.70 136.31 178.18 C 134.03 179.19 131.72 180.10 129.38 180.96 C 130.14 183.69 130.38 186.67 131.89 189.13 C 134.46 191.05 137.60 191.93 140.54 193.11 C 140.55 193.98 140.56 195.72 140.56 196.59 C 131.17 196.84 123.31 189.32 120.05 181.05 C 117.45 172.03 114.01 162.59 116.56 153.14 C 120.98 152.65 124.31 155.70 128.07 157.37 C 131.07 157.92 133.54 155.42 135.62 153.61 C 138.46 151.21 139.77 147.67 140.94 144.26 C 138.98 144.45 137.03 144.67 135.08 144.88 C 135.48 141.90 136.21 138.95 136.22 135.93 C 136.01 132.39 133.75 129.56 131.73 126.84 C 131.34 129.11 130.94 131.38 130.52 133.65 C 129.97 133.66 128.88 133.67 128.33 133.68 C 126.92 129.74 125.59 125.44 122.10 122.79 C 120.35 120.83 117.60 121.71 115.34 121.80 L 114.25 121.91 C 115.64 120.55 117.22 118.41 119.44 119.50 C 124.06 120.52 126.62 124.73 128.50 128.69 C 130.07 127.22 131.64 125.76 133.22 124.30 C 131.44 122.82 129.67 121.34 127.89 119.87 C 128.00 119.08 128.23 117.50 128.34 116.70 Z" />
<path fill="#da251c" d=" M 115.34 121.80 C 117.60 121.71 120.35 120.83 122.10 122.79 C 125.59 125.44 126.92 129.74 128.33 133.68 C 128.88 133.67 129.97 133.66 130.52 133.65 C 130.94 131.38 131.34 129.11 131.73 126.84 C 133.75 129.56 136.01 132.39 136.22 135.93 C 136.21 138.95 135.48 141.90 135.08 144.88 C 137.03 144.67 138.98 144.45 140.94 144.26 C 139.77 147.67 138.46 151.21 135.62 153.61 C 133.54 155.42 131.07 157.92 128.07 157.37 C 124.31 155.70 120.98 152.65 116.56 153.14 C 114.01 162.59 117.45 172.03 120.05 181.05 C 123.31 189.32 131.17 196.84 140.56 196.59 C 140.56 195.72 140.55 193.98 140.54 193.11 C 137.60 191.93 134.46 191.05 131.89 189.13 C 130.38 186.67 130.14 183.69 129.38 180.96 C 131.72 180.10 134.03 179.19 136.31 178.18 C 131.51 174.70 126.44 171.64 121.47 168.45 C 118.67 166.81 118.44 163.37 118.15 160.49 C 119.72 160.33 121.29 160.18 122.87 160.05 C 126.50 164.57 130.34 169.12 135.62 171.80 C 135.48 169.68 135.33 167.57 135.23 165.46 C 138.06 162.96 140.49 160.04 142.02 156.56 C 146.03 156.65 150.04 156.58 154.05 156.30 C 156.21 156.33 158.67 155.86 160.52 157.27 C 166.40 160.85 168.86 167.68 173.78 172.24 C 177.17 175.53 179.69 179.76 180.00 184.56 C 177.59 186.04 175.13 187.43 172.65 188.79 C 173.31 196.11 171.67 203.36 168.22 209.82 C 167.07 207.04 166.03 204.22 164.89 201.44 C 162.78 207.14 161.29 213.14 161.42 219.25 C 167.15 223.13 172.96 226.91 179.40 229.53 C 190.03 235.62 199.95 242.87 209.71 250.24 C 217.69 254.53 226.96 259.28 236.21 256.44 C 234.73 252.71 232.44 249.24 228.96 247.10 C 219.75 241.23 210.86 234.84 201.15 229.79 C 196.85 227.28 191.98 225.21 189.01 221.01 C 185.22 216.08 184.34 209.76 181.73 204.25 C 180.59 201.76 178.01 200.48 175.95 198.87 C 182.55 195.04 190.51 196.94 196.96 200.05 C 202.95 205.19 205.26 213.42 205.93 221.04 C 206.31 223.11 206.13 225.63 208.02 227.04 C 212.37 230.83 217.82 233.03 222.34 236.61 C 229.15 242.15 238.70 244.70 242.85 253.08 C 244.18 255.77 244.63 260.05 241.55 261.74 C 237.48 264.07 232.59 263.23 228.12 263.43 C 230.31 266.07 232.44 268.76 234.54 271.48 C 237.15 274.51 236.89 278.96 236.16 282.63 C 234.48 286.34 231.92 289.62 229.37 292.78 C 230.91 292.61 232.46 292.47 234.02 292.37 C 231.90 297.40 228.31 301.70 223.99 305.01 C 218.51 309.18 212.60 313.03 205.92 314.95 C 203.39 315.67 200.93 316.66 198.68 318.03 C 198.24 318.29 197.37 318.81 196.93 319.08 C 192.92 313.91 186.02 315.49 180.36 315.67 C 179.82 311.01 181.26 306.63 183.88 302.82 C 182.18 301.89 180.38 301.10 178.81 299.94 C 178.61 298.20 178.58 296.45 178.49 294.71 C 181.91 292.74 185.80 293.20 189.52 293.82 C 189.35 291.99 189.19 290.16 189.05 288.34 C 192.68 289.29 196.90 289.46 199.66 292.34 C 201.82 294.25 202.09 297.29 202.89 299.88 C 207.03 297.95 211.09 295.66 214.35 292.41 C 216.73 290.55 216.32 286.03 213.38 284.92 C 210.10 283.92 206.50 284.03 203.44 282.34 C 197.33 279.14 192.98 273.63 188.20 268.83 C 186.48 266.52 183.15 267.05 180.78 267.86 C 177.87 269.84 175.52 272.54 173.09 275.07 C 171.29 276.77 171.40 279.38 171.06 281.64 C 173.16 283.99 177.99 285.63 176.56 289.53 C 174.53 293.21 170.16 294.44 166.41 295.59 C 158.23 297.54 149.74 298.28 141.35 297.57 C 135.11 297.01 129.57 293.83 124.09 291.04 C 122.24 289.96 120.03 290.61 118.02 290.58 C 113.69 291.04 109.04 289.12 105.12 291.77 C 104.75 289.93 104.13 288.09 104.23 286.20 C 104.80 284.58 105.82 283.17 106.66 281.69 C 105.13 279.22 102.57 277.97 99.88 277.16 C 102.43 274.36 105.62 272.29 109.19 271.04 C 109.45 269.08 109.73 267.13 110.00 265.17 C 108.63 263.74 107.26 262.31 105.92 260.86 C 111.92 258.81 117.66 262.14 123.54 262.96 C 123.60 261.13 123.65 259.30 123.73 257.47 C 126.58 258.68 129.46 260.18 131.14 262.90 C 134.10 266.45 131.78 271.40 133.57 275.39 C 139.09 279.63 146.32 276.76 152.55 276.28 C 152.44 270.45 151.75 264.51 152.82 258.74 C 155.22 254.53 159.70 252.27 163.77 249.98 C 151.06 246.59 137.50 250.86 125.01 246.40 C 121.91 245.50 118.66 244.84 115.94 243.00 C 110.38 239.28 104.86 235.47 99.73 231.15 C 95.56 227.62 89.83 225.92 86.77 221.15 C 82.87 215.28 81.23 208.29 79.19 201.64 C 76.37 188.79 73.96 175.84 72.12 162.82 C 71.45 158.30 71.98 153.65 70.83 149.20 C 69.96 145.89 70.66 142.45 70.18 139.10 C 68.80 137.77 67.08 136.88 65.47 135.87 C 67.41 134.48 69.39 132.76 71.97 133.23 C 74.23 133.64 76.15 132.67 77.82 131.22 C 77.27 129.41 76.68 127.61 76.14 125.80 C 79.52 126.80 82.71 128.33 85.57 130.41 C 87.60 132.16 90.37 131.56 92.82 131.56 C 92.42 128.67 90.74 126.30 89.05 124.02 C 92.54 125.68 96.33 127.05 99.05 129.91 C 101.54 131.89 101.09 135.91 98.85 137.93 C 98.17 138.72 97.46 139.49 96.75 140.26 C 97.78 139.84 98.81 139.82 99.83 140.17 C 102.90 143.16 101.88 149.13 98.41 151.48 C 95.62 152.71 92.48 152.31 89.53 152.62 C 89.56 155.92 89.59 159.31 90.90 162.41 C 93.17 168.05 94.97 173.90 97.77 179.32 C 98.33 177.53 98.99 175.76 99.29 173.90 C 99.40 170.69 97.93 167.59 98.37 164.37 C 98.95 161.32 100.84 158.78 102.04 155.97 C 105.61 148.09 104.30 138.46 110.23 131.60 C 109.35 130.64 108.47 129.68 107.56 128.76 C 106.38 127.62 105.06 126.63 103.81 125.58 C 105.82 124.91 107.88 124.06 110.05 124.32 C 112.78 125.96 114.94 128.34 117.00 130.73 C 118.07 129.81 119.14 128.89 120.21 127.97 C 118.63 125.87 116.98 123.84 115.34 121.80 Z" />
<path fill="#fef9f5" d=" M 107.56 128.76 C 108.47 129.68 109.35 130.64 110.23 131.60 C 104.30 138.46 105.61 148.09 102.04 155.97 C 100.84 158.78 98.95 161.32 98.37 164.37 C 97.93 167.59 99.40 170.69 99.29 173.90 C 98.99 175.76 98.33 177.53 97.77 179.32 C 94.97 173.90 93.17 168.05 90.90 162.41 C 89.59 159.31 89.56 155.92 89.53 152.62 C 92.48 152.31 95.62 152.71 98.41 151.48 C 101.88 149.13 102.90 143.16 99.83 140.17 C 98.81 139.82 97.78 139.84 96.75 140.26 C 97.46 139.49 98.17 138.72 98.85 137.93 C 100.58 139.12 102.25 140.39 103.86 141.73 C 105.34 137.48 106.57 133.15 107.56 128.76 Z" />
<path fill="#bf756f" d=" M 192.49 142.08 C 190.52 141.67 192.74 138.70 193.86 140.25 C 193.52 140.71 192.84 141.63 192.49 142.08 Z" />
<path fill="#ffe7e5" d=" M 153.09 163.09 C 156.09 163.15 158.00 165.39 157.69 168.34 C 156.25 168.41 154.82 168.48 153.39 168.55 C 152.87 166.77 152.61 164.91 153.09 163.09 Z" />
<path fill="#ca6866" d=" M 259.26 177.69 C 261.44 179.27 263.16 181.36 264.52 183.67 C 255.61 183.86 246.61 184.44 237.75 183.24 C 245.20 183.15 252.67 183.15 260.08 182.24 C 259.82 180.72 259.57 179.20 259.26 177.69 Z" />
<path fill="#be7978" d=" M 271.89 190.27 C 272.42 190.42 273.49 190.74 274.02 190.89 C 274.15 192.77 270.78 191.77 271.89 190.27 Z" />
<path fill="#d6271e" d=" M 49.35 296.38 C 65.85 288.09 86.17 287.17 103.05 294.89 C 111.39 298.61 118.44 305.23 122.35 313.52 C 125.66 320.33 126.66 328.07 126.19 335.57 C 93.57 335.50 60.94 335.34 28.32 335.46 C 28.23 329.01 27.66 322.26 30.36 316.22 C 33.77 307.42 41.25 300.84 49.35 296.38 Z" />
<path fill="#fefefd" d=" M 52.07 304.99 C 65.18 297.78 81.44 296.58 95.46 301.80 C 102.54 304.56 109.49 308.81 113.38 315.55 C 115.63 318.93 116.68 322.88 117.41 326.83 C 91.19 326.50 64.96 326.61 38.74 326.62 C 38.33 326.62 37.50 326.62 37.08 326.62 C 38.09 317.44 44.40 309.70 52.07 304.99 Z" />
<path fill="#1f1a17" d=" M 318.35 312.22 C 319.17 316.90 318.71 321.74 318.86 326.49 C 338.89 326.16 358.72 331.03 376.90 339.25 C 405.13 352.93 429.28 375.78 442.65 404.34 C 451.48 421.51 455.20 440.82 456.37 459.95 C 456.77 479.13 453.21 498.37 446.05 516.16 C 440.37 529.59 432.41 541.98 423.23 553.28 C 416.96 561.00 409.03 567.06 401.44 573.41 C 377.99 591.72 348.15 601.02 318.55 601.40 C 318.14 505.01 318.54 408.59 318.35 312.22 Z" />
<path fill="#ae7670" d=" M 196.93 319.08 C 197.37 318.81 198.24 318.29 198.68 318.03 C 200.83 319.68 196.16 322.00 196.93 319.08 Z" />
<path fill="#b53833" d=" M 38.74 326.62 C 64.96 326.61 91.19 326.50 117.41 326.83 C 113.54 328.74 109.16 328.18 105.00 328.22 C 84.66 328.05 64.31 327.96 43.97 327.99 C 42.11 328.08 40.35 327.48 38.74 326.62 Z" />
<path fill="#d3281f" d=" M 118.50 340.30 C 121.08 340.30 123.65 340.32 126.23 340.41 C 126.23 351.78 126.34 363.16 126.20 374.54 C 93.54 374.58 60.87 374.48 28.21 374.58 C 28.22 371.87 28.18 369.16 28.12 366.45 C 58.23 366.82 88.37 366.55 118.49 366.59 C 118.54 357.83 118.57 349.07 118.50 340.30 Z" />
<path fill="#bb4a44" d=" M 29.13 367.90 C 29.20 367.65 29.35 367.15 29.42 366.90 C 52.94 367.35 76.47 367.05 100.00 367.12 C 106.16 367.22 112.34 366.67 118.47 367.47 C 113.39 368.72 108.16 367.94 103.00 368.05 C 80.02 368.12 57.04 367.86 34.06 368.20 C 32.42 368.10 30.77 368.01 29.13 367.90 Z" />
<path fill="#d22920" d=" M 28.61 383.92 C 34.04 388.62 38.53 394.36 44.42 398.55 C 52.97 405.00 62.64 411.16 73.61 411.92 C 73.64 402.78 73.54 393.64 73.66 384.51 C 76.21 384.48 78.76 384.48 81.32 384.51 C 81.39 393.65 81.30 402.78 81.32 411.91 C 92.89 411.53 103.01 404.71 111.94 397.92 C 117.14 394.27 121.35 389.46 126.14 385.33 C 126.33 388.69 127.45 392.84 124.19 395.14 C 113.07 405.48 100.63 415.50 85.60 419.24 C 76.33 421.69 66.28 420.41 57.83 415.95 C 46.50 410.65 38.12 401.10 28.58 393.33 C 28.48 390.19 28.50 387.05 28.61 383.92 Z" />
<path fill="#d4281f" d=" M 28.54 418.83 C 31.53 418.77 34.51 418.73 37.49 418.80 C 37.47 427.40 37.45 436.00 37.52 444.60 C 49.52 444.71 61.52 444.58 73.52 444.50 C 73.58 439.21 73.59 433.92 73.50 428.63 C 76.13 428.54 78.76 428.54 81.38 428.69 C 81.31 433.97 81.32 439.26 81.39 444.54 C 96.18 444.55 110.97 444.62 125.76 444.55 C 126.09 447.18 126.28 449.83 126.36 452.48 C 93.79 452.60 61.21 452.35 28.63 452.30 C 28.53 441.14 28.43 429.98 28.54 418.83 Z" />
<path fill="#bf4d46" d=" M 37.43 445.47 C 42.27 444.81 47.15 444.99 52.01 445.06 C 59.10 445.16 66.20 444.65 73.26 445.46 C 66.54 446.38 59.75 445.87 53.00 446.09 C 47.81 446.10 42.53 446.80 37.43 445.47 Z" />
<path fill="#cf2a21" d=" M 74.05 459.53 C 76.25 459.53 78.46 459.52 80.67 459.50 C 80.75 467.90 80.75 476.30 80.69 484.71 C 78.46 484.71 76.24 484.71 74.01 484.70 C 73.51 476.33 73.45 467.89 74.05 459.53 Z" />
<path fill="#d5271f" d=" M 111.45 487.47 C 116.31 484.23 120.85 480.48 126.05 477.79 C 125.87 481.22 127.70 485.91 124.07 488.08 C 117.27 492.96 110.38 497.70 103.59 502.60 C 99.30 505.74 94.59 508.39 90.94 512.31 C 102.50 512.87 114.10 512.46 125.67 512.53 C 125.69 515.15 125.71 517.76 125.73 520.39 C 93.09 520.57 60.45 520.56 27.81 520.39 C 27.41 509.05 29.87 496.52 38.47 488.46 C 41.93 484.94 46.34 482.32 51.20 481.31 C 60.97 478.89 71.88 483.15 77.67 491.33 C 81.13 495.59 82.86 500.85 84.46 506.01 C 93.63 500.10 102.46 493.66 111.45 487.47 Z" />
<path fill="#fefefd" d=" M 43.63 495.67 C 48.48 490.04 57.12 487.64 63.92 491.03 C 71.90 494.73 75.53 503.91 76.06 512.21 C 63.11 512.37 50.17 512.30 37.22 512.24 C 37.47 506.23 39.54 500.16 43.63 495.67 Z" />
<path fill="#d42820" d=" M 28.55 532.53 C 61.16 532.56 93.79 532.17 126.39 532.52 C 125.95 534.47 126.97 537.71 124.43 538.46 C 92.55 551.38 60.49 563.84 28.61 576.77 C 28.53 574.29 28.34 571.83 28.47 569.36 C 29.60 568.40 30.99 567.87 32.32 567.27 C 54.31 558.30 76.43 549.66 98.29 540.41 C 75.07 540.03 51.83 540.36 28.60 540.23 C 28.57 537.66 28.55 535.09 28.55 532.53 Z" />
<path fill="#d2291f" d=" M 27.84 583.32 C 32.85 582.45 37.94 582.73 43.00 582.68 C 70.75 582.58 98.51 582.43 126.26 582.52 C 126.28 584.79 126.31 587.06 126.32 589.34 C 111.31 589.43 96.30 589.44 81.28 589.44 C 81.31 598.51 81.35 607.58 81.34 616.65 C 96.31 616.42 111.24 617.41 126.20 617.32 C 126.23 619.72 126.25 622.12 126.27 624.53 C 93.72 624.76 61.16 624.57 28.60 624.40 C 28.95 622.10 27.77 619.16 29.27 617.29 C 32.42 616.32 35.77 616.86 39.00 616.73 C 50.25 616.60 61.51 616.90 72.74 616.50 L 73.49 616.04 C 73.59 607.22 73.51 598.40 73.40 589.58 C 58.23 589.45 43.06 589.86 27.89 589.72 C 27.83 587.58 27.81 585.45 27.84 583.32 Z" />
<path fill="#d3281f" d=" M 28.58 634.19 C 32.17 634.21 35.76 634.20 39.35 634.28 C 39.31 638.72 39.44 643.15 39.52 647.58 C 55.68 647.73 71.84 647.60 87.99 647.75 C 100.62 648.75 113.31 648.18 125.97 648.42 C 126.19 650.82 126.18 653.25 126.01 655.67 C 114.01 655.95 101.99 655.37 90.01 656.19 C 73.10 656.29 56.18 656.20 39.27 656.26 C 39.28 660.60 39.29 664.95 39.10 669.29 C 35.64 669.37 32.19 669.41 28.73 669.36 C 28.59 657.64 28.57 645.91 28.58 634.19 Z" />
<path fill="#d4271f" d=" M 84.85 697.97 C 98.91 688.87 112.16 678.54 126.34 669.63 C 126.45 672.53 126.48 675.44 126.57 678.35 C 114.77 687.25 102.26 695.19 90.64 704.32 C 102.52 704.69 114.41 704.29 126.30 704.55 C 126.27 707.15 126.22 709.76 126.05 712.37 C 93.51 712.34 60.97 712.33 28.43 712.37 C 27.77 703.30 29.34 693.94 34.13 686.10 C 38.32 679.45 45.15 674.23 53.00 672.90 C 62.15 671.12 71.81 675.27 77.46 682.55 C 81.34 686.89 83.21 692.49 84.85 697.97 Z" />
<path fill="#fefdfc" d=" M 46.95 684.97 C 52.32 680.84 60.35 680.04 66.07 683.91 C 72.93 687.92 75.45 696.20 76.83 703.53 C 63.72 704.67 50.53 704.29 37.38 704.28 C 38.10 697.02 40.88 689.42 46.95 684.97 Z" />
<path fill="#d02921" d=" M 28.54 718.62 C 41.15 731.09 55.34 743.98 73.55 746.80 C 73.69 737.42 73.47 728.04 73.65 718.67 C 76.23 718.73 78.81 718.92 81.37 719.26 C 81.33 728.43 81.22 737.60 81.36 746.77 C 99.30 744.32 113.62 731.82 126.15 719.67 C 126.24 723.22 127.41 727.58 123.93 729.96 C 114.11 738.37 104.15 747.29 91.78 751.73 C 81.35 755.91 69.06 756.00 58.90 750.99 C 47.00 745.67 38.14 735.86 28.38 727.55 C 28.40 724.57 28.43 721.59 28.54 718.62 Z" />
<path fill="#d4281f" d=" M 28.68 750.29 C 31.67 750.29 34.67 750.29 37.66 750.32 C 37.81 756.73 37.40 763.17 38.11 769.56 C 66.32 769.66 94.52 769.45 122.72 769.65 C 122.70 771.93 122.70 774.23 122.67 776.53 C 101.60 785.87 80.53 795.21 59.45 804.50 C 57.02 805.54 54.65 806.73 52.43 808.17 C 75.81 808.84 99.24 808.32 122.65 808.51 C 122.66 810.97 122.67 813.43 122.67 815.90 C 106.80 816.66 90.88 816.03 75.00 816.24 C 59.55 816.20 44.11 816.31 28.67 816.19 C 29.10 813.67 27.21 809.47 30.42 808.41 C 54.35 798.02 78.50 788.10 102.33 777.48 C 80.94 777.09 59.53 777.39 38.14 777.32 C 37.31 783.43 38.01 789.62 37.53 795.75 C 35.23 797.46 31.53 796.08 28.69 796.45 C 28.63 781.07 28.58 765.68 28.68 750.29 Z" />
<path fill="#d42721" d=" M 28.60 830.59 C 59.97 830.51 91.34 830.43 122.71 830.54 C 122.70 833.09 122.66 835.65 122.56 838.21 C 91.21 838.27 59.87 838.22 28.52 838.25 C 28.53 835.69 28.57 833.13 28.60 830.59 Z" />
<path fill="#d4281f" d=" M 28.60 847.31 C 60.00 852.36 91.18 858.88 122.59 863.83 C 122.67 866.29 122.68 868.75 122.65 871.21 C 100.34 874.59 78.06 878.19 55.81 881.97 C 77.97 886.30 100.39 889.25 122.65 893.06 C 122.68 895.49 122.69 897.94 122.67 900.38 C 91.24 906.10 59.83 911.90 28.41 917.68 C 28.37 915.01 28.39 912.35 28.43 909.70 C 45.26 906.63 62.12 903.74 78.95 900.72 C 84.73 899.70 90.61 899.00 96.20 897.13 C 75.93 894.01 55.66 890.85 35.38 887.80 C 33.08 887.44 30.81 886.99 28.55 886.45 C 28.59 883.47 28.59 880.49 28.54 877.52 C 37.12 875.58 45.90 874.75 54.57 873.32 C 68.40 871.10 82.29 869.20 96.10 866.87 C 73.69 862.30 51.03 858.91 28.49 855.02 C 28.50 852.44 28.55 849.87 28.60 847.31 Z" />
<path fill="#5f5a58" d=" M 0.00 923.08 L 0.36 924.31 C 0.61 926.85 0.78 929.41 0.94 931.97 C 259.96 932.01 518.98 931.96 778.00 931.99 C 875.10 932.06 972.21 931.81 1069.32 932.12 L 1069.01 933.00 L 0.00 933.00 L 0.00 923.08 Z" />
<path fill="#39120b" d=" M 803.68 925.53 C 815.10 924.76 826.56 925.31 838.01 925.15 C 906.00 925.15 974.00 925.14 1042.00 925.15 C 1048.45 925.21 1054.92 924.85 1061.36 925.58 C 1056.30 926.66 1051.12 926.35 1046.00 926.32 C 968.34 926.33 890.67 926.31 813.01 926.33 C 809.88 926.30 806.77 925.97 803.68 925.53 Z" />
</svg>
